<svg width="1500" height="400" viewBox="0 0 1500 400" fill="none" xmlns="http://www.w3.org/2000/svg">
<rect width="1500" height="400" fill="#4C1691"/>
<path d="M612.847 219.233L636.262 179.593H649.397L626.218 219.77H619.532L612.847 219.233Z" fill="#FBFBFB"/>
<path d="M638.087 179.593L649.677 198.909L662.039 198.909L649.677 179.593L638.087 179.593Z" fill="#F5F5F5"/>
<path d="M624.952 219.77L613.362 200.454L601 200.454L613.362 219.77L624.952 219.77Z" fill="#E9E9E9"/>
<path d="M662.039 198.909H649.677L637.314 219.77H650.449L662.039 198.909Z" fill="#E9E9E9"/>
<path d="M601 200.454L613.362 200.454L625.725 179.593L612.59 179.593L601 200.454Z" fill="#F5F5F5"/>
<path d="M680.41 201.317L688.707 186.502H675.669V179.39H699.374C697.321 183.549 695.366 187.087 691.077 195.094C697.442 197.594 699.67 201.613 699.374 208.428C699.374 216.132 695.725 218.868 687.818 219.984C678.632 220.28 675.669 216.429 674.484 207.836H681.892C682.78 214.947 692.262 214.354 692.262 207.836C692.262 201.317 688.707 201.317 680.41 201.317Z" fill="#E9E9E9"/>
<path d="M732.856 201.317L741.153 186.502H728.115V179.39H751.82C749.767 183.549 747.813 187.087 743.523 195.094C749.888 197.594 752.116 201.613 751.82 208.428C751.82 216.132 748.171 218.868 740.264 219.984C731.078 220.28 728.115 216.429 726.93 207.836H734.338C735.227 214.947 744.708 214.354 744.708 207.836C744.708 201.317 741.153 201.317 732.856 201.317Z" fill="#E9E9E9"/>
<path fill-rule="evenodd" clip-rule="evenodd" d="M701.448 187.983V211.688C701.448 217.021 706.485 219.984 713.3 219.984C720.708 219.984 725.152 216.725 725.152 211.688V187.983C725.152 183.835 719.522 179.39 713.3 179.39C706.781 179.39 701.744 182.353 701.448 187.983ZM708.559 191.679V207.598C708.559 211.179 710.574 213.169 713.3 213.169C716.263 213.169 718.041 210.98 718.041 207.598V191.679C718.041 188.894 715.789 185.909 713.3 185.909C710.692 185.909 708.678 187.899 708.559 191.679Z" fill="#E9E9E9"/>
<path d="M776.709 179.39H754.19V201.021H767.228C770.783 201.021 771.08 203.984 771.08 207.836C771.08 214.354 761.894 215.54 761.894 207.836H754.19C754.19 214.947 757.45 219.688 761.894 219.688C773.746 220.577 778.191 217.317 778.191 206.947C778.191 196.872 773.45 194.502 761.894 194.502V186.502H776.709V179.39Z" fill="#E9E9E9"/>
<path d="M809.303 179.39H779.969V187.094H789.747V219.392H798.932V187.094H806.933L809.303 179.39Z" fill="#E9E9E9"/>
<path d="M835.082 179.39H811.081V219.688H835.082V211.984H820.266V202.502H831.526V194.798H820.266V187.094H833.008L835.082 179.39Z" fill="#E9E9E9"/>
<path d="M862.638 187.983L864.712 180.872C848.119 174.649 836.86 184.724 836.86 199.539C836.86 214.651 846.638 222.947 864.712 218.799L862.638 211.095C854.045 213.762 846.638 211.095 846.638 199.539C846.638 187.983 852.564 185.613 862.638 187.983Z" fill="#E9E9E9"/>
<path d="M877.75 179.094H868.268V219.392H877.75V202.206H889.602V219.392H899.084V179.094H889.602V194.502H877.75V179.094Z" fill="#E9E9E9"/>
</svg>
